<svg xmlns="http://www.w3.org/2000/svg" width="960" height="540" viewBox="0 0 960 540" role="img" aria-labelledby="title desc">
  <title id="title">스터디 운영 보드 예시</title>
  <desc id="desc">회차 목표, 발표자, 자료 흐름을 보여주는 간단한 보드 이미지</desc>
  <rect width="960" height="540" fill="#f8fafc"/>
  <rect x="72" y="72" width="816" height="396" rx="18" fill="#ffffff" stroke="#cbd5e1" stroke-width="2"/>
  <rect x="112" y="118" width="210" height="286" rx="12" fill="#ecfeff" stroke="#67e8f9"/>
  <rect x="374" y="118" width="210" height="286" rx="12" fill="#fefce8" stroke="#fde047"/>
  <rect x="636" y="118" width="210" height="286" rx="12" fill="#fdf2f8" stroke="#f9a8d4"/>
  <text x="138" y="164" font-family="Arial, sans-serif" font-size="30" font-weight="700" fill="#0f172a">목표</text>
  <text x="400" y="164" font-family="Arial, sans-serif" font-size="30" font-weight="700" fill="#0f172a">발표</text>
  <text x="662" y="164" font-family="Arial, sans-serif" font-size="30" font-weight="700" fill="#0f172a">자료</text>
  <line x1="150" y1="216" x2="284" y2="216" stroke="#0891b2" stroke-width="10" stroke-linecap="round"/>
  <line x1="150" y1="258" x2="260" y2="258" stroke="#0891b2" stroke-width="10" stroke-linecap="round"/>
  <line x1="412" y1="216" x2="546" y2="216" stroke="#ca8a04" stroke-width="10" stroke-linecap="round"/>
  <line x1="412" y1="258" x2="522" y2="258" stroke="#ca8a04" stroke-width="10" stroke-linecap="round"/>
  <line x1="674" y1="216" x2="808" y2="216" stroke="#db2777" stroke-width="10" stroke-linecap="round"/>
  <line x1="674" y1="258" x2="784" y2="258" stroke="#db2777" stroke-width="10" stroke-linecap="round"/>
  <path d="M326 260h44" stroke="#64748b" stroke-width="6" stroke-linecap="round"/>
  <path d="m360 244 18 16-18 16" fill="none" stroke="#64748b" stroke-width="6" stroke-linecap="round" stroke-linejoin="round"/>
  <path d="M588 260h44" stroke="#64748b" stroke-width="6" stroke-linecap="round"/>
  <path d="m622 244 18 16-18 16" fill="none" stroke="#64748b" stroke-width="6" stroke-linecap="round" stroke-linejoin="round"/>
</svg>

